<?xml version="1.0" encoding="UTF-8"?>
<svg xmlns="http://www.w3.org/2000/svg" width="450.0" height="450.0" viewBox="-5.0 -5.0 90.0 90.0">
  <defs>
    <marker id="axis-arrow" markerWidth="4" markerHeight="4" refX="3.2" refY="2" orient="auto" markerUnits="strokeWidth">
      <path d="M0,0 L4,2 L0,4 Z" fill="context-stroke"/>
    </marker>
  </defs>
  <rect x="-5.0" y="-5.0" width="90.0" height="90.0" fill="white"/>
  <rect width="80.0" height="80.0" fill="white"/>
  <rect x="15.0" y="15.0" width="50.0" height="50.0" fill="none" stroke="#bbb" stroke-width="0.2" stroke-dasharray="1.5,1.5"/>
  <line x1="80.00" y1="80.00" x2="0" y2="80.00" stroke="#64748b" stroke-width="0.25" stroke-dasharray="1,1"/>
  <line x1="80.00" y1="80.00" x2="80.00" y2="0" stroke="#64748b" stroke-width="0.25" stroke-dasharray="1,1"/>
  <circle cx="80.00" cy="80.00" r="0.75" fill="#0f172a"/>
  <text x="81.00" y="82.40" font-size="2" font-family="sans-serif" font-weight="bold" fill="#0f172a">O</text>
  <line x1="80.00" y1="80.00" x2="70.00" y2="80.00" stroke="#dc2626" stroke-width="0.45" marker-end="url(#axis-arrow)"/>
  <text x="69.50" y="82.20" font-size="2.2" font-family="sans-serif" font-weight="bold" fill="#dc2626">X</text>
  <line x1="80.00" y1="80.00" x2="80.00" y2="70.00" stroke="#16a34a" stroke-width="0.45" marker-end="url(#axis-arrow)"/>
  <text x="81.00" y="69.50" font-size="2.2" font-family="sans-serif" font-weight="bold" fill="#16a34a">Y</text>
  <path d="M 65.00,15.00 L 15.00,15.00 L 15.00,65.00 L 65.00,65.00 L 65.00,19.00 L 55.34,19.00 L 61.00,24.66 L 61.00,30.31 L 49.69,19.00 L 44.03,19.00 L 61.00,35.97 L 61.00,41.63 L 38.37,19.00 L 32.72,19.00 L 61.00,47.28 L 61.00,52.94 L 27.06,19.00 L 21.40,19.00 L 61.00,58.60 L 61.00,61.00 L 57.75,61.00 L 19.00,22.26 L 19.00,27.91 L 52.09,61.00 L 46.43,61.00 L 19.00,33.57 L 19.00,39.23 L 40.77,61.00 L 35.12,61.00 L 19.00,44.88 L 19.00,50.54 L 29.46,61.00 L 23.80,61.00 L 19.00,56.20" fill="none" stroke="#2563eb" stroke-width="0.35" stroke-linejoin="round"/>
  <circle cx="65.0" cy="15.0" r="0.9" fill="#16a34a"/>
  <text x="66.2" y="14.0" font-size="2.2" font-family="sans-serif" font-weight="bold" fill="#16a34a">START</text>
  <circle cx="19.0" cy="56.196" r="0.9" fill="#ea580c"/>
  <text x="20.2" y="58.396" font-size="2.2" font-family="sans-serif" font-weight="bold" fill="#ea580c">END</text>
  <circle cx="65.0" cy="15.0" r="0.55" fill="#dc2626"/>
  <text x="66.0" y="14.2" font-size="2" font-family="monospace" fill="#555">1</text>
  <circle cx="15.0" cy="15.0" r="0.55" fill="#dc2626"/>
  <text x="16.0" y="14.2" font-size="2" font-family="monospace" fill="#555">2</text>
  <circle cx="15.0" cy="65.0" r="0.55" fill="#dc2626"/>
  <text x="16.0" y="64.2" font-size="2" font-family="monospace" fill="#555">3</text>
  <circle cx="65.0" cy="65.0" r="0.55" fill="#dc2626"/>
  <text x="66.0" y="64.2" font-size="2" font-family="monospace" fill="#555">4</text>
  <circle cx="65.0" cy="19.0" r="0.55" fill="#dc2626"/>
  <text x="66.0" y="18.2" font-size="2" font-family="monospace" fill="#555">5</text>
  <circle cx="55.343" cy="19.0" r="0.55" fill="#dc2626"/>
  <text x="56.343" y="18.2" font-size="2" font-family="monospace" fill="#555">6</text>
  <circle cx="61.0" cy="24.656999999999996" r="0.55" fill="#dc2626"/>
  <text x="62.0" y="23.856999999999996" font-size="2" font-family="monospace" fill="#555">7</text>
  <circle cx="61.0" cy="30.314" r="0.55" fill="#dc2626"/>
  <text x="62.0" y="29.514" font-size="2" font-family="monospace" fill="#555">8</text>
  <circle cx="49.686" cy="19.0" r="0.55" fill="#dc2626"/>
  <text x="50.686" y="18.2" font-size="2" font-family="monospace" fill="#555">9</text>
  <circle cx="44.029" cy="19.0" r="0.55" fill="#dc2626"/>
  <text x="45.029" y="18.2" font-size="2" font-family="monospace" fill="#555">10</text>
  <circle cx="61.0" cy="35.971" r="0.55" fill="#dc2626"/>
  <text x="62.0" y="35.171" font-size="2" font-family="monospace" fill="#555">11</text>
  <circle cx="61.0" cy="41.627" r="0.55" fill="#dc2626"/>
  <text x="62.0" y="40.827000000000005" font-size="2" font-family="monospace" fill="#555">12</text>
  <circle cx="38.373" cy="19.0" r="0.55" fill="#dc2626"/>
  <text x="39.373" y="18.2" font-size="2" font-family="monospace" fill="#555">13</text>
  <circle cx="32.716" cy="19.0" r="0.55" fill="#dc2626"/>
  <text x="33.716" y="18.2" font-size="2" font-family="monospace" fill="#555">14</text>
  <circle cx="61.0" cy="47.284" r="0.55" fill="#dc2626"/>
  <text x="62.0" y="46.484" font-size="2" font-family="monospace" fill="#555">15</text>
  <circle cx="61.0" cy="52.941" r="0.55" fill="#dc2626"/>
  <text x="62.0" y="52.141000000000005" font-size="2" font-family="monospace" fill="#555">16</text>
  <circle cx="27.058999999999997" cy="19.0" r="0.55" fill="#dc2626"/>
  <text x="28.058999999999997" y="18.2" font-size="2" font-family="monospace" fill="#555">17</text>
  <circle cx="21.402" cy="19.0" r="0.55" fill="#dc2626"/>
  <text x="22.402" y="18.2" font-size="2" font-family="monospace" fill="#555">18</text>
  <circle cx="61.0" cy="58.598" r="0.55" fill="#dc2626"/>
  <text x="62.0" y="57.798" font-size="2" font-family="monospace" fill="#555">19</text>
  <circle cx="61.0" cy="61.0" r="0.55" fill="#dc2626"/>
  <text x="62.0" y="60.2" font-size="2" font-family="monospace" fill="#555">20</text>
  <circle cx="57.745000000000005" cy="61.0" r="0.55" fill="#dc2626"/>
  <text x="58.745000000000005" y="60.2" font-size="2" font-family="monospace" fill="#555">21</text>
  <circle cx="19.0" cy="22.255000000000003" r="0.55" fill="#dc2626"/>
  <text x="20.0" y="21.455000000000002" font-size="2" font-family="monospace" fill="#555">22</text>
  <circle cx="19.0" cy="27.912" r="0.55" fill="#dc2626"/>
  <text x="20.0" y="27.112" font-size="2" font-family="monospace" fill="#555">23</text>
  <circle cx="52.088" cy="61.0" r="0.55" fill="#dc2626"/>
  <text x="53.088" y="60.2" font-size="2" font-family="monospace" fill="#555">24</text>
  <circle cx="46.431" cy="61.0" r="0.55" fill="#dc2626"/>
  <text x="47.431" y="60.2" font-size="2" font-family="monospace" fill="#555">25</text>
  <circle cx="19.0" cy="33.569" r="0.55" fill="#dc2626"/>
  <text x="20.0" y="32.769000000000005" font-size="2" font-family="monospace" fill="#555">26</text>
  <circle cx="19.0" cy="39.225" r="0.55" fill="#dc2626"/>
  <text x="20.0" y="38.425000000000004" font-size="2" font-family="monospace" fill="#555">27</text>
  <circle cx="40.775" cy="61.0" r="0.55" fill="#dc2626"/>
  <text x="41.775" y="60.2" font-size="2" font-family="monospace" fill="#555">28</text>
  <circle cx="35.118" cy="61.0" r="0.55" fill="#dc2626"/>
  <text x="36.118" y="60.2" font-size="2" font-family="monospace" fill="#555">29</text>
  <circle cx="19.0" cy="44.882" r="0.55" fill="#dc2626"/>
  <text x="20.0" y="44.082" font-size="2" font-family="monospace" fill="#555">30</text>
  <circle cx="19.0" cy="50.539" r="0.55" fill="#dc2626"/>
  <text x="20.0" y="49.739000000000004" font-size="2" font-family="monospace" fill="#555">31</text>
  <circle cx="29.461" cy="61.0" r="0.55" fill="#dc2626"/>
  <text x="30.461" y="60.2" font-size="2" font-family="monospace" fill="#555">32</text>
  <circle cx="23.804000000000002" cy="61.0" r="0.55" fill="#dc2626"/>
  <text x="24.804000000000002" y="60.2" font-size="2" font-family="monospace" fill="#555">33</text>
  <circle cx="19.0" cy="56.196" r="0.55" fill="#dc2626"/>
  <text x="20.0" y="55.396" font-size="2" font-family="monospace" fill="#555">34</text>
  <text x="40.0" y="5" text-anchor="middle" font-size="3.2" font-family="sans-serif" fill="#333">80 x 80 mm - Bordered 45° Diagonal Hatch (LI)</text>
  <text x="40.0" y="78.0" text-anchor="middle" font-size="2.8" font-family="sans-serif" fill="#555">50 x 50 mm | 15 mm edge | 4 mm spacing | 34 corners</text>
</svg>
