<?xml version="1.0" encoding="UTF-8"?>
<svg xmlns="http://www.w3.org/2000/svg" width="400.0" height="400.0" viewBox="0 0 80.0 80.0">
  <rect width="80.0" height="80.0" fill="white"/>
  <rect x="0.25" y="0.25" width="79.5" height="79.5" fill="none" stroke="#1a1a1a" stroke-width="0.4"/>
  <rect x="15.0" y="15.0" width="50.0" height="50.0" fill="none" stroke="#bbb" stroke-width="0.2" stroke-dasharray="1.5,1.5"/>
  <path d="M 15.00,15.00 L 65.00,15.00 L 65.00,65.00 L 15.00,65.00 L 15.00,19.00 L 24.66,19.00 L 19.00,24.66 L 19.00,30.31 L 30.31,19.00 L 35.97,19.00 L 19.00,35.97 L 19.00,41.63 L 41.63,19.00 L 47.28,19.00 L 19.00,47.28 L 19.00,52.94 L 52.94,19.00 L 58.60,19.00 L 19.00,58.60 L 19.00,61.00 L 22.25,61.00 L 61.00,22.25 L 61.00,27.91 L 27.91,61.00 L 33.57,61.00 L 61.00,33.57 L 61.00,39.23 L 39.23,61.00 L 44.88,61.00 L 61.00,44.88 L 61.00,50.54 L 50.54,61.00 L 56.20,61.00 L 61.00,56.20" fill="none" stroke="#2563eb" stroke-width="0.35" stroke-linejoin="round"/>
  <circle cx="15.0" cy="15.0" r="0.9" fill="#16a34a"/>
  <text x="16.2" y="14.0" font-size="2.2" font-family="sans-serif" font-weight="bold" fill="#16a34a">START</text>
  <circle cx="61.0" cy="56.1959594929" r="0.9" fill="#ea580c"/>
  <text x="62.2" y="58.395959492900005" font-size="2.2" font-family="sans-serif" font-weight="bold" fill="#ea580c">END</text>
  <circle cx="15.0" cy="15.0" r="0.55" fill="#dc2626"/>
  <text x="16.0" y="14.2" font-size="2" font-family="monospace" fill="#555">1</text>
  <circle cx="65.0" cy="15.0" r="0.55" fill="#dc2626"/>
  <text x="66.0" y="14.2" font-size="2" font-family="monospace" fill="#555">2</text>
  <circle cx="65.0" cy="65.0" r="0.55" fill="#dc2626"/>
  <text x="66.0" y="64.2" font-size="2" font-family="monospace" fill="#555">3</text>
  <circle cx="15.0" cy="65.0" r="0.55" fill="#dc2626"/>
  <text x="16.0" y="64.2" font-size="2" font-family="monospace" fill="#555">4</text>
  <circle cx="15.0" cy="19.0" r="0.55" fill="#dc2626"/>
  <text x="16.0" y="18.2" font-size="2" font-family="monospace" fill="#555">5</text>
  <circle cx="24.6568542495" cy="19.0" r="0.55" fill="#dc2626"/>
  <text x="25.6568542495" y="18.2" font-size="2" font-family="monospace" fill="#555">6</text>
  <circle cx="19.0" cy="24.6568542495" r="0.55" fill="#dc2626"/>
  <text x="20.0" y="23.8568542495" font-size="2" font-family="monospace" fill="#555">7</text>
  <circle cx="19.0" cy="30.313708499" r="0.55" fill="#dc2626"/>
  <text x="20.0" y="29.513708499" font-size="2" font-family="monospace" fill="#555">8</text>
  <circle cx="30.313708499" cy="19.0" r="0.55" fill="#dc2626"/>
  <text x="31.313708499" y="18.2" font-size="2" font-family="monospace" fill="#555">9</text>
  <circle cx="35.9705627485" cy="19.0" r="0.55" fill="#dc2626"/>
  <text x="36.9705627485" y="18.2" font-size="2" font-family="monospace" fill="#555">10</text>
  <circle cx="19.0" cy="35.9705627485" r="0.55" fill="#dc2626"/>
  <text x="20.0" y="35.170562748500004" font-size="2" font-family="monospace" fill="#555">11</text>
  <circle cx="19.0" cy="41.627416998" r="0.55" fill="#dc2626"/>
  <text x="20.0" y="40.827416998000004" font-size="2" font-family="monospace" fill="#555">12</text>
  <circle cx="41.627416998" cy="19.0" r="0.55" fill="#dc2626"/>
  <text x="42.627416998" y="18.2" font-size="2" font-family="monospace" fill="#555">13</text>
  <circle cx="47.2842712475" cy="19.0" r="0.55" fill="#dc2626"/>
  <text x="48.2842712475" y="18.2" font-size="2" font-family="monospace" fill="#555">14</text>
  <circle cx="19.0" cy="47.2842712475" r="0.55" fill="#dc2626"/>
  <text x="20.0" y="46.484271247500004" font-size="2" font-family="monospace" fill="#555">15</text>
  <circle cx="19.0" cy="52.941125497" r="0.55" fill="#dc2626"/>
  <text x="20.0" y="52.141125497000004" font-size="2" font-family="monospace" fill="#555">16</text>
  <circle cx="52.941125497" cy="19.0" r="0.55" fill="#dc2626"/>
  <text x="53.941125497" y="18.2" font-size="2" font-family="monospace" fill="#555">17</text>
  <circle cx="58.5979797464" cy="19.0" r="0.55" fill="#dc2626"/>
  <text x="59.5979797464" y="18.2" font-size="2" font-family="monospace" fill="#555">18</text>
  <circle cx="19.0" cy="58.5979797464" r="0.55" fill="#dc2626"/>
  <text x="20.0" y="57.7979797464" font-size="2" font-family="monospace" fill="#555">19</text>
  <circle cx="19.0" cy="61.0" r="0.55" fill="#dc2626"/>
  <text x="20.0" y="60.2" font-size="2" font-family="monospace" fill="#555">20</text>
  <circle cx="22.2548339959" cy="61.0" r="0.55" fill="#dc2626"/>
  <text x="23.2548339959" y="60.2" font-size="2" font-family="monospace" fill="#555">21</text>
  <circle cx="61.0" cy="22.2548339959" r="0.55" fill="#dc2626"/>
  <text x="62.0" y="21.4548339959" font-size="2" font-family="monospace" fill="#555">22</text>
  <circle cx="61.0" cy="27.9116882454" r="0.55" fill="#dc2626"/>
  <text x="62.0" y="27.1116882454" font-size="2" font-family="monospace" fill="#555">23</text>
  <circle cx="27.9116882454" cy="61.0" r="0.55" fill="#dc2626"/>
  <text x="28.9116882454" y="60.2" font-size="2" font-family="monospace" fill="#555">24</text>
  <circle cx="33.5685424949" cy="61.0" r="0.55" fill="#dc2626"/>
  <text x="34.5685424949" y="60.2" font-size="2" font-family="monospace" fill="#555">25</text>
  <circle cx="61.0" cy="33.5685424949" r="0.55" fill="#dc2626"/>
  <text x="62.0" y="32.768542494900004" font-size="2" font-family="monospace" fill="#555">26</text>
  <circle cx="61.0" cy="39.2253967444" r="0.55" fill="#dc2626"/>
  <text x="62.0" y="38.425396744400004" font-size="2" font-family="monospace" fill="#555">27</text>
  <circle cx="39.2253967444" cy="61.0" r="0.55" fill="#dc2626"/>
  <text x="40.2253967444" y="60.2" font-size="2" font-family="monospace" fill="#555">28</text>
  <circle cx="44.8822509939" cy="61.0" r="0.55" fill="#dc2626"/>
  <text x="45.8822509939" y="60.2" font-size="2" font-family="monospace" fill="#555">29</text>
  <circle cx="61.0" cy="44.8822509939" r="0.55" fill="#dc2626"/>
  <text x="62.0" y="44.082250993900004" font-size="2" font-family="monospace" fill="#555">30</text>
  <circle cx="61.0" cy="50.5391052434" r="0.55" fill="#dc2626"/>
  <text x="62.0" y="49.739105243400004" font-size="2" font-family="monospace" fill="#555">31</text>
  <circle cx="50.5391052434" cy="61.0" r="0.55" fill="#dc2626"/>
  <text x="51.5391052434" y="60.2" font-size="2" font-family="monospace" fill="#555">32</text>
  <circle cx="56.1959594929" cy="61.0" r="0.55" fill="#dc2626"/>
  <text x="57.1959594929" y="60.2" font-size="2" font-family="monospace" fill="#555">33</text>
  <circle cx="61.0" cy="56.1959594929" r="0.55" fill="#dc2626"/>
  <text x="62.0" y="55.395959492900005" font-size="2" font-family="monospace" fill="#555">34</text>
  <text x="40.0" y="5" text-anchor="middle" font-size="3.2" font-family="sans-serif" fill="#333">80 x 80 mm — Bordered 45° Diagonal Hatch</text>
  <text x="40.0" y="78.0" text-anchor="middle" font-size="2.8" font-family="sans-serif" fill="#555">50 x 50 mm | 4 mm spacing | 34 corners</text>
</svg>