<?xml version="1.0" encoding="UTF-8"?>
<svg xmlns="http://www.w3.org/2000/svg" width="400.0" height="400.0" viewBox="0 0 80.0 80.0">
  <rect width="80.0" height="80.0" fill="white"/>
  <rect x="0.25" y="0.25" width="79.5" height="79.5" fill="none" stroke="#1a1a1a" stroke-width="0.4"/>
  <rect x="15.0" y="15.0" width="50.0" height="50.0" fill="none" stroke="#bbb" stroke-width="0.2" stroke-dasharray="1.5,1.5"/>
  <path d="M 15.00,15.00 L 15.00,65.00 L 19.00,65.00 L 19.00,15.00 L 23.00,15.00 L 23.00,65.00 L 27.00,65.00 L 27.00,15.00 L 31.00,15.00 L 31.00,65.00 L 35.00,65.00 L 35.00,15.00 L 39.00,15.00 L 39.00,65.00 L 43.00,65.00 L 43.00,15.00 L 47.00,15.00 L 47.00,65.00 L 51.00,65.00 L 51.00,15.00 L 55.00,15.00 L 55.00,65.00 L 59.00,65.00 L 59.00,15.00 L 63.00,15.00 L 63.00,65.00" fill="none" stroke="#2563eb" stroke-width="0.35" stroke-linejoin="round"/>
  <circle cx="15.0" cy="15.0" r="0.9" fill="#16a34a"/>
  <text x="16.2" y="14.0" font-size="2.2" font-family="sans-serif" font-weight="bold" fill="#16a34a">START</text>
  <circle cx="63.0" cy="65.0" r="0.9" fill="#ea580c"/>
  <text x="64.2" y="67.2" font-size="2.2" font-family="sans-serif" font-weight="bold" fill="#ea580c">END</text>
  <circle cx="15.0" cy="15.0" r="0.55" fill="#dc2626"/>
  <text x="16.0" y="14.2" font-size="2" font-family="monospace" fill="#555">1</text>
  <circle cx="15.0" cy="65.0" r="0.55" fill="#dc2626"/>
  <text x="16.0" y="64.2" font-size="2" font-family="monospace" fill="#555">2</text>
  <circle cx="19.0" cy="65.0" r="0.55" fill="#dc2626"/>
  <text x="20.0" y="64.2" font-size="2" font-family="monospace" fill="#555">3</text>
  <circle cx="19.0" cy="15.0" r="0.55" fill="#dc2626"/>
  <text x="20.0" y="14.2" font-size="2" font-family="monospace" fill="#555">4</text>
  <circle cx="23.0" cy="15.0" r="0.55" fill="#dc2626"/>
  <text x="24.0" y="14.2" font-size="2" font-family="monospace" fill="#555">5</text>
  <circle cx="23.0" cy="65.0" r="0.55" fill="#dc2626"/>
  <text x="24.0" y="64.2" font-size="2" font-family="monospace" fill="#555">6</text>
  <circle cx="27.0" cy="65.0" r="0.55" fill="#dc2626"/>
  <text x="28.0" y="64.2" font-size="2" font-family="monospace" fill="#555">7</text>
  <circle cx="27.0" cy="15.0" r="0.55" fill="#dc2626"/>
  <text x="28.0" y="14.2" font-size="2" font-family="monospace" fill="#555">8</text>
  <circle cx="31.0" cy="15.0" r="0.55" fill="#dc2626"/>
  <text x="32.0" y="14.2" font-size="2" font-family="monospace" fill="#555">9</text>
  <circle cx="31.0" cy="65.0" r="0.55" fill="#dc2626"/>
  <text x="32.0" y="64.2" font-size="2" font-family="monospace" fill="#555">10</text>
  <circle cx="35.0" cy="65.0" r="0.55" fill="#dc2626"/>
  <text x="36.0" y="64.2" font-size="2" font-family="monospace" fill="#555">11</text>
  <circle cx="35.0" cy="15.0" r="0.55" fill="#dc2626"/>
  <text x="36.0" y="14.2" font-size="2" font-family="monospace" fill="#555">12</text>
  <circle cx="39.0" cy="15.0" r="0.55" fill="#dc2626"/>
  <text x="40.0" y="14.2" font-size="2" font-family="monospace" fill="#555">13</text>
  <circle cx="39.0" cy="65.0" r="0.55" fill="#dc2626"/>
  <text x="40.0" y="64.2" font-size="2" font-family="monospace" fill="#555">14</text>
  <circle cx="43.0" cy="65.0" r="0.55" fill="#dc2626"/>
  <text x="44.0" y="64.2" font-size="2" font-family="monospace" fill="#555">15</text>
  <circle cx="43.0" cy="15.0" r="0.55" fill="#dc2626"/>
  <text x="44.0" y="14.2" font-size="2" font-family="monospace" fill="#555">16</text>
  <circle cx="47.0" cy="15.0" r="0.55" fill="#dc2626"/>
  <text x="48.0" y="14.2" font-size="2" font-family="monospace" fill="#555">17</text>
  <circle cx="47.0" cy="65.0" r="0.55" fill="#dc2626"/>
  <text x="48.0" y="64.2" font-size="2" font-family="monospace" fill="#555">18</text>
  <circle cx="51.0" cy="65.0" r="0.55" fill="#dc2626"/>
  <text x="52.0" y="64.2" font-size="2" font-family="monospace" fill="#555">19</text>
  <circle cx="51.0" cy="15.0" r="0.55" fill="#dc2626"/>
  <text x="52.0" y="14.2" font-size="2" font-family="monospace" fill="#555">20</text>
  <circle cx="55.0" cy="15.0" r="0.55" fill="#dc2626"/>
  <text x="56.0" y="14.2" font-size="2" font-family="monospace" fill="#555">21</text>
  <circle cx="55.0" cy="65.0" r="0.55" fill="#dc2626"/>
  <text x="56.0" y="64.2" font-size="2" font-family="monospace" fill="#555">22</text>
  <circle cx="59.0" cy="65.0" r="0.55" fill="#dc2626"/>
  <text x="60.0" y="64.2" font-size="2" font-family="monospace" fill="#555">23</text>
  <circle cx="59.0" cy="15.0" r="0.55" fill="#dc2626"/>
  <text x="60.0" y="14.2" font-size="2" font-family="monospace" fill="#555">24</text>
  <circle cx="63.0" cy="15.0" r="0.55" fill="#dc2626"/>
  <text x="64.0" y="14.2" font-size="2" font-family="monospace" fill="#555">25</text>
  <circle cx="63.0" cy="65.0" r="0.55" fill="#dc2626"/>
  <text x="64.0" y="64.2" font-size="2" font-family="monospace" fill="#555">26</text>
  <text x="40.0" y="5" text-anchor="middle" font-size="3.2" font-family="sans-serif" fill="#333">80 x 80 mm — Vertical Meander</text>
  <text x="40.0" y="78.0" text-anchor="middle" font-size="2.8" font-family="sans-serif" fill="#555">50 x 50 mm | 4 mm spacing | 26 corners</text>
</svg>