<?xml version="1.0" encoding="UTF-8"?>
<svg xmlns="http://www.w3.org/2000/svg" width="400.0" height="400.0" viewBox="0 0 80.0 80.0">
  <rect width="80.0" height="80.0" fill="white"/>
  <rect x="0.25" y="0.25" width="79.5" height="79.5" fill="none" stroke="#1a1a1a" stroke-width="0.4"/>
  <rect x="16.0" y="16.0" width="48.0" height="48.0" fill="none" stroke="#bbb" stroke-width="0.2" stroke-dasharray="1.5,1.5"/>
  <path d="M 16.00,20.00 L 16.00,16.00 L 64.00,16.00 L 64.00,64.00 L 16.00,64.00 L 16.00,20.00 L 20.00,20.00 L 20.00,60.00 L 24.00,60.00 L 24.00,20.00 L 28.00,20.00 L 28.00,60.00 L 32.00,60.00 L 32.00,20.00 L 36.00,20.00 L 36.00,60.00 L 40.00,60.00 L 40.00,20.00 L 44.00,20.00 L 44.00,60.00 L 48.00,60.00 L 48.00,20.00 L 52.00,20.00 L 52.00,60.00 L 56.00,60.00 L 56.00,20.00 L 60.00,20.00 L 60.00,60.00" fill="none" stroke="#2563eb" stroke-width="0.35" stroke-linejoin="round"/>
  <circle cx="16.0" cy="20.0" r="0.9" fill="#16a34a"/>
  <text x="17.2" y="19.0" font-size="2.2" font-family="sans-serif" font-weight="bold" fill="#16a34a">START</text>
  <circle cx="60.0" cy="60.0" r="0.9" fill="#ea580c"/>
  <text x="61.2" y="62.2" font-size="2.2" font-family="sans-serif" font-weight="bold" fill="#ea580c">END</text>
  <circle cx="16.0" cy="20.0" r="0.55" fill="#dc2626"/>
  <text x="17.0" y="19.2" font-size="2" font-family="monospace" fill="#555">1</text>
  <circle cx="16.0" cy="16.0" r="0.55" fill="#dc2626"/>
  <text x="17.0" y="15.2" font-size="2" font-family="monospace" fill="#555">2</text>
  <circle cx="64.0" cy="16.0" r="0.55" fill="#dc2626"/>
  <text x="65.0" y="15.2" font-size="2" font-family="monospace" fill="#555">3</text>
  <circle cx="64.0" cy="64.0" r="0.55" fill="#dc2626"/>
  <text x="65.0" y="63.2" font-size="2" font-family="monospace" fill="#555">4</text>
  <circle cx="16.0" cy="64.0" r="0.55" fill="#dc2626"/>
  <text x="17.0" y="63.2" font-size="2" font-family="monospace" fill="#555">5</text>
  <circle cx="16.0" cy="20.0" r="0.55" fill="#dc2626"/>
  <text x="17.0" y="19.2" font-size="2" font-family="monospace" fill="#555">6</text>
  <circle cx="20.0" cy="20.0" r="0.55" fill="#dc2626"/>
  <text x="21.0" y="19.2" font-size="2" font-family="monospace" fill="#555">7</text>
  <circle cx="20.0" cy="60.0" r="0.55" fill="#dc2626"/>
  <text x="21.0" y="59.2" font-size="2" font-family="monospace" fill="#555">8</text>
  <circle cx="24.0" cy="60.0" r="0.55" fill="#dc2626"/>
  <text x="25.0" y="59.2" font-size="2" font-family="monospace" fill="#555">9</text>
  <circle cx="24.0" cy="20.0" r="0.55" fill="#dc2626"/>
  <text x="25.0" y="19.2" font-size="2" font-family="monospace" fill="#555">10</text>
  <circle cx="28.0" cy="20.0" r="0.55" fill="#dc2626"/>
  <text x="29.0" y="19.2" font-size="2" font-family="monospace" fill="#555">11</text>
  <circle cx="28.0" cy="60.0" r="0.55" fill="#dc2626"/>
  <text x="29.0" y="59.2" font-size="2" font-family="monospace" fill="#555">12</text>
  <circle cx="32.0" cy="60.0" r="0.55" fill="#dc2626"/>
  <text x="33.0" y="59.2" font-size="2" font-family="monospace" fill="#555">13</text>
  <circle cx="32.0" cy="20.0" r="0.55" fill="#dc2626"/>
  <text x="33.0" y="19.2" font-size="2" font-family="monospace" fill="#555">14</text>
  <circle cx="36.0" cy="20.0" r="0.55" fill="#dc2626"/>
  <text x="37.0" y="19.2" font-size="2" font-family="monospace" fill="#555">15</text>
  <circle cx="36.0" cy="60.0" r="0.55" fill="#dc2626"/>
  <text x="37.0" y="59.2" font-size="2" font-family="monospace" fill="#555">16</text>
  <circle cx="40.0" cy="60.0" r="0.55" fill="#dc2626"/>
  <text x="41.0" y="59.2" font-size="2" font-family="monospace" fill="#555">17</text>
  <circle cx="40.0" cy="20.0" r="0.55" fill="#dc2626"/>
  <text x="41.0" y="19.2" font-size="2" font-family="monospace" fill="#555">18</text>
  <circle cx="44.0" cy="20.0" r="0.55" fill="#dc2626"/>
  <text x="45.0" y="19.2" font-size="2" font-family="monospace" fill="#555">19</text>
  <circle cx="44.0" cy="60.0" r="0.55" fill="#dc2626"/>
  <text x="45.0" y="59.2" font-size="2" font-family="monospace" fill="#555">20</text>
  <circle cx="48.0" cy="60.0" r="0.55" fill="#dc2626"/>
  <text x="49.0" y="59.2" font-size="2" font-family="monospace" fill="#555">21</text>
  <circle cx="48.0" cy="20.0" r="0.55" fill="#dc2626"/>
  <text x="49.0" y="19.2" font-size="2" font-family="monospace" fill="#555">22</text>
  <circle cx="52.0" cy="20.0" r="0.55" fill="#dc2626"/>
  <text x="53.0" y="19.2" font-size="2" font-family="monospace" fill="#555">23</text>
  <circle cx="52.0" cy="60.0" r="0.55" fill="#dc2626"/>
  <text x="53.0" y="59.2" font-size="2" font-family="monospace" fill="#555">24</text>
  <circle cx="56.0" cy="60.0" r="0.55" fill="#dc2626"/>
  <text x="57.0" y="59.2" font-size="2" font-family="monospace" fill="#555">25</text>
  <circle cx="56.0" cy="20.0" r="0.55" fill="#dc2626"/>
  <text x="57.0" y="19.2" font-size="2" font-family="monospace" fill="#555">26</text>
  <circle cx="60.0" cy="20.0" r="0.55" fill="#dc2626"/>
  <text x="61.0" y="19.2" font-size="2" font-family="monospace" fill="#555">27</text>
  <circle cx="60.0" cy="60.0" r="0.55" fill="#dc2626"/>
  <text x="61.0" y="59.2" font-size="2" font-family="monospace" fill="#555">28</text>
  <text x="40.0" y="5" text-anchor="middle" font-size="3.2" font-family="sans-serif" fill="#333">80 x 80 mm — Bordered Meander (48x48 mm)</text>
  <text x="40.0" y="78.0" text-anchor="middle" font-size="2.8" font-family="sans-serif" fill="#555">48 x 48 mm | 4 mm spacing | 28 corners</text>
</svg>